# xmcd CD database file
# Copyright (C) 1993-1997  Ti Kan
#
# Track frame offsets:
#	180
#	23490
#	44499
#	68797
#	97876
#	119418
#	138993
#	152072
#	168253
#
# Disc length: 2458 seconds
#
# Revision: 1
# Processed by: cddbd v1.4b41PL1 Copyright (c) Steve Scherf et al.
# Submitted via: xmcd 2.1 PL2
#
DISCID=6c099809
DTITLE=Cub Koda and The Houserockers - The Joint Was Rockin'
DYEAR=1900
DGENRE=
TTITLE0=Bad Boy
TTITLE1=Give Me Back That Wig
TTITLE2=The Sky Is Crying
TTITLE3=Dust My Broom
TTITLE4=High and Lonesome
TTITLE5=Whole Lot Of Lovin'
TTITLE6=Last Night
TTITLE7=That's Alright
TTITLE8=The Dirty Dozens
EXTD=
EXTT0=
EXTT1=
EXTT2=
EXTT3=
EXTT4=
EXTT5=
EXTT6=
EXTT7=
EXTT8=
PLAYORDER=
